<svg width="365" height="375" viewBox="0 0 365 375" fill="none" xmlns="http://www.w3.org/2000/svg">
<circle cx="182.5" cy="184.5" r="182.5" fill="#FE8103"/>
<g filter="url(#filter0_d_7_85)">
<circle cx="184.5" cy="209.5" r="157.5" fill="white"/>
</g>
<g filter="url(#filter1_d_7_85)">
<path d="M236 144.5C176.8 104.1 175.333 49 182 26.5C90.8 109.3 110.667 210 132 250C98 231.6 83.1667 203.333 80 191.5C48 285.9 109.333 345.5 144 363.5C191.2 370.7 225 363.833 236 359.5C276 336.7 292.667 289 296 268C285.6 283.6 262.667 292.167 252.5 294.5C277 276 310 195 236 144.5Z" fill="#007FFF"/>
</g>
<g filter="url(#filter2_d_7_85)">
<path d="M174 346C131.183 335.155 88.0957 295.059 80 270V281.092C107.705 324.802 154.211 342.577 174 346Z" fill="#0C4C8C"/>
</g>
<g filter="url(#filter3_d_7_85)">
<path d="M194 239C164.848 232.15 135.512 206.827 130 191V198.005C148.863 225.612 180.526 236.838 194 239Z" fill="#0C4C8C"/>
</g>
<g filter="url(#filter4_d_7_85)">
<path d="M177.671 193.79C155.667 185.889 135.183 163.829 132.329 151.21L131.699 156.573C143.853 179.427 167.411 190.907 177.671 193.79Z" fill="#0C4C8C"/>
</g>
<g filter="url(#filter5_d_7_85)">
<path d="M131 249L137.5 258C119.028 149.528 157.61 67.5719 180.305 38.5C180.949 31.7 182.37 26.6667 183 25C87.4 106.2 108.5 208.167 131 249Z" fill="#0C4C8C"/>
</g>
<g filter="url(#filter6_d_7_85)">
<path d="M179.5 324.5C131.9 311.3 84 262.5 75 232V245.5C105.8 298.7 157.5 320.333 179.5 324.5Z" fill="#0C4C8C"/>
</g>
<g filter="url(#filter7_d_7_85)">
<path d="M80.5001 204C77.3001 291.2 126.167 347.333 151 364.5L144 363.5C65 323 60.5 236.5 80.0001 191.5L80.5001 204Z" fill="#0C4C8C"/>
</g>
<g filter="url(#filter8_d_7_85)">
<path d="M296 268C218.4 340.4 86 222 80 191.5L80.5 204C134.5 307.6 248 324 294 277.5C295.6 272.3 296 269 296 268Z" fill="#0C4C8C"/>
</g>
<path d="M59.1328 72.9286C60.5579 74.7593 61.1686 76.8393 60.9651 79.1686C60.7644 81.4583 59.4913 83.7303 57.1457 85.9848L53.2813 89.699L60.4311 98.8843L57.8068 101.407L40.6816 79.4062L47.1704 73.1696C49.439 70.989 51.6266 69.9349 53.733 70.0071C55.8587 70.0609 57.6586 71.0347 59.1328 72.9286ZM55.303 83.6174C56.7642 82.213 57.5706 80.831 57.7222 79.4713C57.8738 78.1117 57.45 76.79 56.4508 75.5064C54.3378 72.7919 51.8586 72.802 49.0131 75.5369L45.1487 79.2512L51.4386 87.3317L55.303 83.6174Z" fill="white"/>
<path d="M88.1398 67.5171L78.1849 74.5004L79.4138 81.1776L76.2701 83.3828L70.8293 53.4921L74.2677 51.0801L96.1798 69.4162L93.0362 71.6215L88.1398 67.5171ZM85.8262 65.5407L74.7451 56.1928L77.5742 71.3295L85.8262 65.5407Z" fill="white"/>
<path d="M115.69 59.074L105.553 51.3516L101.593 53.268L105.752 63.8822L102.475 65.4676L92.3036 39.5092L100.405 35.5894C102.302 34.6719 104.029 34.2348 105.588 34.278C107.171 34.3096 108.51 34.7396 109.606 35.5682C110.702 36.3967 111.536 37.5434 112.11 39.0083C112.811 40.796 112.925 42.6165 112.452 44.4699C112.002 46.3116 110.869 47.9379 109.052 49.3488L119.614 57.1751L115.69 59.074ZM100.527 50.5492L105.352 48.2148C107.129 47.3554 108.286 46.2639 108.824 44.9403C109.352 43.5919 109.319 42.1605 108.726 40.6459C108.123 39.1065 107.212 38.1296 105.993 37.7152C104.798 37.2891 103.3 37.5116 101.5 38.3827L96.6748 40.7171L100.527 50.5492Z" fill="white"/>
<path d="M123.739 26.0093L131.216 52.868L127.773 54.0513L120.297 27.1926L123.739 26.0093Z" fill="white"/>
<path d="M149.484 48.0221C147.685 48.4103 146.014 48.4438 144.47 48.1227C142.948 47.7697 141.684 47.1156 140.679 46.1605C139.668 45.179 139.02 43.9424 138.732 42.4508L142.525 41.6324C142.88 42.8914 143.592 43.869 144.66 44.5653C145.75 45.2297 147.181 45.3706 148.954 44.9881C150.648 44.6225 151.904 43.9154 152.722 42.8666C153.561 41.786 153.863 40.5759 153.629 39.2362C153.445 38.1854 153.009 37.3936 152.321 36.8606C151.633 36.3277 150.829 35.9832 149.909 35.8274C148.989 35.6715 147.765 35.554 146.236 35.475C144.355 35.3903 142.826 35.2296 141.648 34.993C140.497 34.7508 139.443 34.215 138.487 33.3855C137.552 32.5241 136.935 31.2397 136.637 29.5323C136.375 28.035 136.521 26.6268 137.075 25.3079C137.629 23.989 138.529 22.868 139.774 21.9451C141.045 21.0165 142.567 20.361 144.34 19.9785C146.894 19.4273 149.092 19.6209 150.933 20.5593C152.8 21.4921 154.024 22.9999 154.604 25.0827L150.694 25.9264C150.38 24.9038 149.672 24.1025 148.57 23.5225C147.463 22.9163 146.115 22.7848 144.525 23.1279C143.039 23.4485 141.896 24.1041 141.095 25.0946C140.29 26.0589 140.009 27.2372 140.252 28.6294C140.427 29.6276 140.843 30.3829 141.5 30.8952C142.184 31.4019 142.96 31.7388 143.827 31.9059C144.717 32.0412 145.941 32.1586 147.5 32.2583C149.386 32.3693 150.92 32.5562 152.102 32.8191C153.279 33.0557 154.348 33.6018 155.309 34.4576C156.266 35.287 156.896 36.5686 157.199 38.3024C157.433 39.6421 157.301 40.9789 156.804 42.3128C156.307 43.6468 155.432 44.8306 154.179 45.8642C152.926 46.8979 151.361 47.6172 149.484 48.0221Z" fill="white"/>
<path d="M224.353 46.0513C228.241 44.3891 231.31 42.994 233.56 41.8658C235.817 40.7118 237.795 39.4043 239.496 37.9433C241.229 36.4641 242.314 34.8309 242.752 33.0437C243.164 31.36 243.079 29.9156 242.496 28.7103C241.946 27.4869 240.777 26.6051 238.991 26.0651C237.255 25.5404 235.766 25.6884 234.523 26.509C233.312 27.3115 232.444 28.6206 231.917 30.4365L228.547 29.4181C229.36 26.548 230.776 24.5697 232.796 23.4835C234.817 22.3972 237.116 22.2437 239.694 23.023C242.323 23.8176 244.223 25.1846 245.393 27.124C246.589 29.071 246.87 31.3396 246.236 33.9298C245.71 36.0797 244.558 37.9848 242.781 39.6453C241.035 41.2877 239.168 42.6428 237.18 43.7109C235.198 44.7531 232.705 45.9192 229.703 47.2094L242.874 51.1904L242.151 54.1433L223.734 48.5768L224.353 46.0513Z" fill="white"/>
<path d="M254.59 43.987C256.273 39.7203 258.255 36.7232 260.537 34.9957C262.829 33.2434 265.653 33.1847 269.009 34.8195C272.342 36.4427 274.205 38.7843 274.598 41.8445C275.001 44.8798 274.361 48.5308 272.678 52.7975C270.966 57.1386 268.964 60.1853 266.672 61.9376C264.38 63.6899 261.568 63.7545 258.236 62.1313C254.879 60.4965 253.004 58.149 252.611 55.0889C252.218 52.0287 252.877 48.3281 254.59 43.987ZM269.442 51.2211C270.293 49.0629 270.868 47.1696 271.168 45.5411C271.501 43.8994 271.417 42.4095 270.916 41.0713C270.439 39.7448 269.397 38.6903 267.791 37.9079C266.161 37.1139 264.733 36.9656 263.508 37.463C262.307 37.9721 261.264 38.9132 260.38 40.2863C259.529 41.6462 258.678 43.4053 257.826 45.5634C256.946 47.796 256.339 49.7331 256.005 51.3747C255.696 53.0281 255.78 54.518 256.257 55.8445C256.758 57.1827 257.824 58.2489 259.454 59.0429C261.06 59.8253 262.464 59.9619 263.665 59.4528C264.89 58.9554 265.933 58.0143 266.794 56.6295C267.678 55.2565 268.561 53.4537 269.442 51.2211Z" fill="white"/>
<path d="M275.414 68.666C279.529 68.2356 282.801 67.8152 285.228 67.4047C287.668 66.971 289.89 66.3038 291.893 65.403C293.931 64.4943 295.403 63.239 296.308 61.6371C297.161 60.128 297.48 58.6998 297.265 57.3525C297.086 55.9972 296.231 54.7856 294.7 53.7175C293.213 52.6799 291.771 52.3704 290.376 52.7889C289.016 53.1995 287.838 54.206 286.841 55.8087L283.954 53.7946C285.51 51.2553 287.389 49.7658 289.589 49.3261C291.789 48.8864 293.993 49.4371 296.202 50.9782C298.454 52.5498 299.863 54.4551 300.427 56.6939C301.014 58.948 300.651 61.2359 299.339 63.5576C298.25 65.4846 296.641 66.9837 294.511 68.0549C292.416 69.1182 290.286 69.8657 288.122 70.2974C285.97 70.706 283.304 71.0796 280.124 71.4185L291.409 79.2917L289.914 81.9385L274.135 70.9296L275.414 68.666Z" fill="white"/>
<path d="M299.113 82.2823L300.797 80.0962L322.835 74.3773L325.993 77.3829L314.371 92.4638L317.268 95.2213L315.339 97.7242L312.442 94.9667L308.511 100.068L305.903 97.5859L309.834 92.485L299.113 82.2823ZM321.182 78.0213L304.084 82.6748L311.879 90.0924L321.182 78.0213Z" fill="white"/>
<path d="M59.1328 72.9286C60.5579 74.7593 61.1686 76.8393 60.9651 79.1686C60.7644 81.4583 59.4913 83.7303 57.1457 85.9848L53.2813 89.699L60.4311 98.8843L57.8068 101.407L40.6816 79.4062L47.1704 73.1696C49.439 70.989 51.6266 69.9349 53.733 70.0071C55.8587 70.0609 57.6586 71.0347 59.1328 72.9286ZM55.303 83.6174C56.7642 82.213 57.5706 80.831 57.7222 79.4713C57.8738 78.1117 57.45 76.79 56.4508 75.5064C54.3378 72.7919 51.8586 72.802 49.0131 75.5369L45.1487 79.2512L51.4386 87.3317L55.303 83.6174Z" fill="#974C01"/>
<path d="M88.1398 67.5171L78.1849 74.5004L79.4138 81.1776L76.2701 83.3828L70.8293 53.4921L74.2677 51.0801L96.1798 69.4162L93.0362 71.6215L88.1398 67.5171ZM85.8262 65.5407L74.7451 56.1928L77.5742 71.3295L85.8262 65.5407Z" fill="#974C01"/>
<path d="M115.69 59.074L105.553 51.3516L101.593 53.268L105.752 63.8822L102.475 65.4676L92.3036 39.5092L100.405 35.5894C102.302 34.6719 104.029 34.2348 105.588 34.278C107.171 34.3096 108.51 34.7396 109.606 35.5682C110.702 36.3967 111.536 37.5434 112.11 39.0083C112.811 40.796 112.925 42.6165 112.452 44.4699C112.002 46.3116 110.869 47.9379 109.052 49.3488L119.614 57.1751L115.69 59.074ZM100.527 50.5492L105.352 48.2148C107.129 47.3554 108.286 46.2639 108.824 44.9403C109.352 43.5919 109.319 42.1605 108.726 40.6459C108.123 39.1065 107.212 38.1296 105.993 37.7152C104.798 37.2891 103.3 37.5116 101.5 38.3827L96.6748 40.7171L100.527 50.5492Z" fill="#974C01"/>
<path d="M123.739 26.0093L131.216 52.868L127.773 54.0513L120.297 27.1926L123.739 26.0093Z" fill="#974C01"/>
<path d="M149.484 48.0221C147.685 48.4103 146.014 48.4438 144.47 48.1227C142.948 47.7697 141.684 47.1156 140.679 46.1605C139.668 45.179 139.02 43.9424 138.732 42.4508L142.525 41.6324C142.88 42.8914 143.592 43.869 144.66 44.5653C145.75 45.2297 147.181 45.3706 148.954 44.9881C150.648 44.6225 151.904 43.9154 152.722 42.8666C153.561 41.786 153.863 40.5759 153.629 39.2362C153.445 38.1854 153.009 37.3936 152.321 36.8606C151.633 36.3277 150.829 35.9832 149.909 35.8274C148.989 35.6715 147.765 35.554 146.236 35.475C144.355 35.3903 142.826 35.2296 141.648 34.993C140.497 34.7508 139.443 34.215 138.487 33.3855C137.552 32.5241 136.935 31.2397 136.637 29.5323C136.375 28.035 136.521 26.6268 137.075 25.3079C137.629 23.989 138.529 22.868 139.774 21.9451C141.045 21.0165 142.567 20.361 144.34 19.9785C146.894 19.4273 149.092 19.6209 150.933 20.5593C152.8 21.4921 154.024 22.9999 154.604 25.0827L150.694 25.9264C150.38 24.9038 149.672 24.1025 148.57 23.5225C147.463 22.9163 146.115 22.7848 144.525 23.1279C143.039 23.4485 141.896 24.1041 141.095 25.0946C140.29 26.0589 140.009 27.2372 140.252 28.6294C140.427 29.6276 140.843 30.3829 141.5 30.8952C142.184 31.4019 142.96 31.7388 143.827 31.9059C144.717 32.0412 145.941 32.1586 147.5 32.2583C149.386 32.3693 150.92 32.5562 152.102 32.8191C153.279 33.0557 154.348 33.6018 155.309 34.4576C156.266 35.287 156.896 36.5686 157.199 38.3024C157.433 39.6421 157.301 40.9789 156.804 42.3128C156.307 43.6468 155.432 44.8306 154.179 45.8642C152.926 46.8979 151.361 47.6172 149.484 48.0221Z" fill="#974C01"/>
<path d="M224.353 46.0513C228.241 44.3891 231.31 42.994 233.56 41.8658C235.817 40.7118 237.795 39.4043 239.496 37.9433C241.229 36.4641 242.314 34.8309 242.752 33.0437C243.164 31.36 243.079 29.9156 242.496 28.7103C241.946 27.4869 240.777 26.6051 238.991 26.0651C237.255 25.5404 235.766 25.6884 234.523 26.509C233.312 27.3115 232.444 28.6206 231.917 30.4365L228.547 29.4181C229.36 26.548 230.776 24.5697 232.796 23.4835C234.817 22.3972 237.116 22.2437 239.694 23.023C242.323 23.8176 244.223 25.1846 245.393 27.124C246.589 29.071 246.87 31.3396 246.236 33.9298C245.71 36.0797 244.558 37.9848 242.781 39.6453C241.035 41.2877 239.168 42.6428 237.18 43.7109C235.198 44.7531 232.705 45.9192 229.703 47.2094L242.874 51.1904L242.151 54.1433L223.734 48.5768L224.353 46.0513Z" fill="#974C01"/>
<path d="M254.59 43.987C256.273 39.7203 258.255 36.7232 260.537 34.9957C262.829 33.2434 265.653 33.1847 269.009 34.8195C272.342 36.4427 274.205 38.7843 274.598 41.8445C275.001 44.8798 274.361 48.5308 272.678 52.7975C270.966 57.1386 268.964 60.1853 266.672 61.9376C264.38 63.6899 261.568 63.7545 258.236 62.1313C254.879 60.4965 253.004 58.149 252.611 55.0889C252.218 52.0287 252.877 48.3281 254.59 43.987ZM269.442 51.2211C270.293 49.0629 270.868 47.1696 271.168 45.5411C271.501 43.8994 271.417 42.4095 270.916 41.0713C270.439 39.7448 269.397 38.6903 267.791 37.9079C266.161 37.1139 264.733 36.9656 263.508 37.463C262.307 37.9721 261.264 38.9132 260.38 40.2863C259.529 41.6462 258.678 43.4053 257.826 45.5634C256.946 47.796 256.339 49.7331 256.005 51.3747C255.696 53.0281 255.78 54.518 256.257 55.8445C256.758 57.1827 257.824 58.2489 259.454 59.0429C261.06 59.8253 262.464 59.9619 263.665 59.4528C264.89 58.9554 265.933 58.0143 266.794 56.6295C267.678 55.2565 268.561 53.4537 269.442 51.2211Z" fill="#974C01"/>
<path d="M275.414 68.666C279.529 68.2356 282.801 67.8152 285.228 67.4047C287.668 66.971 289.89 66.3038 291.893 65.403C293.931 64.4943 295.403 63.239 296.308 61.6371C297.161 60.128 297.48 58.6998 297.265 57.3525C297.086 55.9972 296.231 54.7856 294.7 53.7175C293.213 52.6799 291.771 52.3704 290.376 52.7889C289.016 53.1995 287.838 54.206 286.841 55.8087L283.954 53.7946C285.51 51.2553 287.389 49.7658 289.589 49.3261C291.789 48.8864 293.993 49.4371 296.202 50.9782C298.454 52.5498 299.863 54.4551 300.427 56.6939C301.014 58.948 300.651 61.2359 299.339 63.5576C298.25 65.4846 296.641 66.9837 294.511 68.0549C292.416 69.1182 290.286 69.8657 288.122 70.2974C285.97 70.706 283.304 71.0796 280.124 71.4185L291.409 79.2917L289.914 81.9385L274.135 70.9296L275.414 68.666Z" fill="#974C01"/>
<path d="M299.113 82.2823L300.797 80.0962L322.835 74.3773L325.993 77.3829L314.371 92.4638L317.268 95.2213L315.339 97.7242L312.442 94.9667L308.511 100.068L305.903 97.5859L309.834 92.485L299.113 82.2823ZM321.182 78.0213L304.084 82.6748L311.879 90.0924L321.182 78.0213Z" fill="#974C01"/>
<defs>
<filter id="filter0_d_7_85" x="21" y="40" width="327" height="327" filterUnits="userSpaceOnUse" color-interpolation-filters="sRGB">
<feFlood flood-opacity="0" result="BackgroundImageFix"/>
<feColorMatrix in="SourceAlpha" type="matrix" values="0 0 0 0 0 0 0 0 0 0 0 0 0 0 0 0 0 0 127 0" result="hardAlpha"/>
<feOffset dy="-6"/>
<feGaussianBlur stdDeviation="3"/>
<feComposite in2="hardAlpha" operator="out"/>
<feColorMatrix type="matrix" values="0 0 0 0 0 0 0 0 0 0 0 0 0 0 0 0 0 0 0.25 0"/>
<feBlend mode="normal" in2="BackgroundImageFix" result="effect1_dropShadow_7_85"/>
<feBlend mode="normal" in="SourceGraphic" in2="effect1_dropShadow_7_85" result="shape"/>
</filter>
<filter id="filter1_d_7_85" x="67.0369" y="26.5" width="232.963" height="348.136" filterUnits="userSpaceOnUse" color-interpolation-filters="sRGB">
<feFlood flood-opacity="0" result="BackgroundImageFix"/>
<feColorMatrix in="SourceAlpha" type="matrix" values="0 0 0 0 0 0 0 0 0 0 0 0 0 0 0 0 0 0 127 0" result="hardAlpha"/>
<feOffset dy="4"/>
<feGaussianBlur stdDeviation="2"/>
<feComposite in2="hardAlpha" operator="out"/>
<feColorMatrix type="matrix" values="0 0 0 0 0 0 0 0 0 0 0 0 0 0 0 0 0 0 0.25 0"/>
<feBlend mode="normal" in2="BackgroundImageFix" result="effect1_dropShadow_7_85"/>
<feBlend mode="normal" in="SourceGraphic" in2="effect1_dropShadow_7_85" result="shape"/>
</filter>
<filter id="filter2_d_7_85" x="76" y="270" width="102" height="84" filterUnits="userSpaceOnUse" color-interpolation-filters="sRGB">
<feFlood flood-opacity="0" result="BackgroundImageFix"/>
<feColorMatrix in="SourceAlpha" type="matrix" values="0 0 0 0 0 0 0 0 0 0 0 0 0 0 0 0 0 0 127 0" result="hardAlpha"/>
<feOffset dy="4"/>
<feGaussianBlur stdDeviation="2"/>
<feComposite in2="hardAlpha" operator="out"/>
<feColorMatrix type="matrix" values="0 0 0 0 0 0 0 0 0 0 0 0 0 0 0 0 0 0 0.25 0"/>
<feBlend mode="normal" in2="BackgroundImageFix" result="effect1_dropShadow_7_85"/>
<feBlend mode="normal" in="SourceGraphic" in2="effect1_dropShadow_7_85" result="shape"/>
</filter>
<filter id="filter3_d_7_85" x="126" y="191" width="72" height="56" filterUnits="userSpaceOnUse" color-interpolation-filters="sRGB">
<feFlood flood-opacity="0" result="BackgroundImageFix"/>
<feColorMatrix in="SourceAlpha" type="matrix" values="0 0 0 0 0 0 0 0 0 0 0 0 0 0 0 0 0 0 127 0" result="hardAlpha"/>
<feOffset dy="4"/>
<feGaussianBlur stdDeviation="2"/>
<feComposite in2="hardAlpha" operator="out"/>
<feColorMatrix type="matrix" values="0 0 0 0 0 0 0 0 0 0 0 0 0 0 0 0 0 0 0.25 0"/>
<feBlend mode="normal" in2="BackgroundImageFix" result="effect1_dropShadow_7_85"/>
<feBlend mode="normal" in="SourceGraphic" in2="effect1_dropShadow_7_85" result="shape"/>
</filter>
<filter id="filter4_d_7_85" x="127.699" y="151.21" width="53.972" height="50.5805" filterUnits="userSpaceOnUse" color-interpolation-filters="sRGB">
<feFlood flood-opacity="0" result="BackgroundImageFix"/>
<feColorMatrix in="SourceAlpha" type="matrix" values="0 0 0 0 0 0 0 0 0 0 0 0 0 0 0 0 0 0 127 0" result="hardAlpha"/>
<feOffset dy="4"/>
<feGaussianBlur stdDeviation="2"/>
<feComposite in2="hardAlpha" operator="out"/>
<feColorMatrix type="matrix" values="0 0 0 0 0 0 0 0 0 0 0 0 0 0 0 0 0 0 0.25 0"/>
<feBlend mode="normal" in2="BackgroundImageFix" result="effect1_dropShadow_7_85"/>
<feBlend mode="normal" in="SourceGraphic" in2="effect1_dropShadow_7_85" result="shape"/>
</filter>
<filter id="filter5_d_7_85" x="107.919" y="25" width="79.0813" height="241" filterUnits="userSpaceOnUse" color-interpolation-filters="sRGB">
<feFlood flood-opacity="0" result="BackgroundImageFix"/>
<feColorMatrix in="SourceAlpha" type="matrix" values="0 0 0 0 0 0 0 0 0 0 0 0 0 0 0 0 0 0 127 0" result="hardAlpha"/>
<feOffset dy="4"/>
<feGaussianBlur stdDeviation="2"/>
<feComposite in2="hardAlpha" operator="out"/>
<feColorMatrix type="matrix" values="0 0 0 0 0 0 0 0 0 0 0 0 0 0 0 0 0 0 0.25 0"/>
<feBlend mode="normal" in2="BackgroundImageFix" result="effect1_dropShadow_7_85"/>
<feBlend mode="normal" in="SourceGraphic" in2="effect1_dropShadow_7_85" result="shape"/>
</filter>
<filter id="filter6_d_7_85" x="71" y="232" width="112.5" height="100.5" filterUnits="userSpaceOnUse" color-interpolation-filters="sRGB">
<feFlood flood-opacity="0" result="BackgroundImageFix"/>
<feColorMatrix in="SourceAlpha" type="matrix" values="0 0 0 0 0 0 0 0 0 0 0 0 0 0 0 0 0 0 127 0" result="hardAlpha"/>
<feOffset dy="4"/>
<feGaussianBlur stdDeviation="2"/>
<feComposite in2="hardAlpha" operator="out"/>
<feColorMatrix type="matrix" values="0 0 0 0 0 0 0 0 0 0 0 0 0 0 0 0 0 0 0.25 0"/>
<feBlend mode="normal" in2="BackgroundImageFix" result="effect1_dropShadow_7_85"/>
<feBlend mode="normal" in="SourceGraphic" in2="effect1_dropShadow_7_85" result="shape"/>
</filter>
<filter id="filter7_d_7_85" x="66.2877" y="191.5" width="88.7125" height="181" filterUnits="userSpaceOnUse" color-interpolation-filters="sRGB">
<feFlood flood-opacity="0" result="BackgroundImageFix"/>
<feColorMatrix in="SourceAlpha" type="matrix" values="0 0 0 0 0 0 0 0 0 0 0 0 0 0 0 0 0 0 127 0" result="hardAlpha"/>
<feOffset dy="4"/>
<feGaussianBlur stdDeviation="2"/>
<feComposite in2="hardAlpha" operator="out"/>
<feColorMatrix type="matrix" values="0 0 0 0 0 0 0 0 0 0 0 0 0 0 0 0 0 0 0.25 0"/>
<feBlend mode="normal" in2="BackgroundImageFix" result="effect1_dropShadow_7_85"/>
<feBlend mode="normal" in="SourceGraphic" in2="effect1_dropShadow_7_85" result="shape"/>
</filter>
<filter id="filter8_d_7_85" x="76" y="191.5" width="224" height="118.67" filterUnits="userSpaceOnUse" color-interpolation-filters="sRGB">
<feFlood flood-opacity="0" result="BackgroundImageFix"/>
<feColorMatrix in="SourceAlpha" type="matrix" values="0 0 0 0 0 0 0 0 0 0 0 0 0 0 0 0 0 0 127 0" result="hardAlpha"/>
<feOffset dy="4"/>
<feGaussianBlur stdDeviation="2"/>
<feComposite in2="hardAlpha" operator="out"/>
<feColorMatrix type="matrix" values="0 0 0 0 0 0 0 0 0 0 0 0 0 0 0 0 0 0 0.25 0"/>
<feBlend mode="normal" in2="BackgroundImageFix" result="effect1_dropShadow_7_85"/>
<feBlend mode="normal" in="SourceGraphic" in2="effect1_dropShadow_7_85" result="shape"/>
</filter>
</defs>
</svg>
